<svg xmlns="http://www.w3.org/2000/svg" viewBox="0 0 32 32">
  <path d="M16,1C7.72,1,1,7.72,1,16s6.72,15,15,15,15-6.72,15-15S24.28,1,16,1ZM16,3.5c6.89,0,12.5,5.61,12.5,12.5s-5.61,12.5-12.5,12.5S3.5,22.89,3.5,16,9.11,3.5,16,3.5ZM12.97,21.93h-4.47v-.25l1.58-1.91c.17-.17.24-.42.2-.66v-6.63c.02-.18-.05-.37-.19-.49l-1.4-1.69v-.25h4.35l3.36,7.37,2.96-7.37h4.15v.25l-1.2,1.15c-.1.08-.16.21-.13.34v8.44c-.02.13.03.26.13.34l1.17,1.15v.25h-5.88v-.25l1.21-1.18c.12-.12.12-.15.12-.34v-6.82l-3.37,8.55h-.46l-3.92-8.55v5.73c-.03.24.05.48.22.66l1.58,1.91s0,.25,0,.25Z"/>
</svg>