<svg xmlns="http://www.w3.org/2000/svg" viewBox="0 0 32 32">
  <path d="M16,3.5c6.89,0,12.5,5.61,12.5,12.5s-5.61,12.5-12.5,12.5S3.5,22.89,3.5,16,9.11,3.5,16,3.5ZM16,1C7.72,1,1,7.72,1,16s6.72,15,15,15,15-6.72,15-15S24.28,1,16,1ZM17.88,21.62h-6.25v-1.25h6.25v1.25ZM21.62,14.34l-1.01-5.84-1.25.22,1.01,5.83s1.25-.22,1.25-.22ZM17.9,18.67l-6.09-.61-.12,1.26,6.1.55s.11-1.2.11-1.2ZM18.23,17.05l-5.8-1.63-.33,1.22,5.82,1.56.31-1.15ZM18.99,15.54l-5.19-3.04-.64,1.09,5.18,3.04.64-1.09ZM20.15,14.63l-3.34-4.89-1.05.71,3.34,4.89,1.05-.71ZM18.5,17.25v5h-7.5v-5h-1.25v6.25h10v-6.25h-1.25Z"/>
</svg>