<svg xmlns="http://www.w3.org/2000/svg" viewBox="0 0 32 32">
  <path d="M30.66,2.29c.07-.17.08-.36.05-.54-.04-.18-.13-.34-.26-.47-.13-.13-.29-.22-.47-.26-.18-.04-.37-.02-.54.05L2.16,11.98c-.24.1-.45.26-.6.46-.15.21-.25.45-.27.71-.02.26.02.52.14.75.11.23.29.43.51.57l9.37,5.96,2.87,4.51c.14.2.35.35.59.4.24.05.49,0,.7-.13.21-.13.35-.34.41-.58.06-.24.02-.49-.11-.7l-2.58-4.05,14.05-14.05-3.55,8.88c-.05.11-.07.24-.07.36,0,.12.02.25.07.36s.12.22.21.31.19.16.31.2c.12.05.24.07.36.07.12,0,.25-.03.36-.08s.22-.12.3-.21c.09-.09.15-.2.2-.31l5.25-13.13ZM25.89,4.5l-14.05,14.05L3.71,13.38,25.89,4.5ZM30.72,24.44c0,1.74-.69,3.41-1.92,4.64-1.23,1.23-2.9,1.92-4.64,1.92s-3.41-.69-4.64-1.92c-1.23-1.23-1.92-2.9-1.92-4.64s.69-3.41,1.92-4.64c1.23-1.23,2.9-1.92,4.64-1.92s3.41.69,4.64,1.92c1.23,1.23,1.92,2.9,1.92,4.64ZM26.99,21.29c-.11-.06-.22-.11-.34-.12-.12-.02-.25-.01-.37.02-.12.03-.23.08-.33.16-.1.07-.18.17-.25.27l-2.19,3.66-1.03-1.03c-.18-.18-.41-.27-.66-.27s-.49.1-.66.27-.27.41-.27.66.1.49.27.66l1.45,1.45c.15.15.33.27.54.34.2.07.42.09.63.07.21-.03.42-.1.6-.22.18-.12.33-.27.44-.46l2.5-4.17c.06-.11.11-.22.12-.34.02-.12.01-.25-.02-.37-.03-.12-.08-.23-.16-.33-.07-.1-.17-.18-.27-.25Z"/>
</svg>