<svg xmlns="http://www.w3.org/2000/svg" viewBox="0 0 32 32">
  <path d="M16.17,2.93v-1.93h1.15v1.93h-1.15ZM20.77,3.7c-.64-.26-1.15-.39-1.79-.51l.38-1.8c.77.13,1.41.39,2.05.64l-.64,1.67ZM22.56,4.47l.9-1.67c.64.39,1.28.77,1.79,1.16l-1.15,1.41c-.26-.26-.51-.39-.77-.51h0s-.51-.26-.77-.39ZM26.78,8.33c-.38-.51-.77-1.03-1.15-1.54l1.41-1.29c.51.51,1.02,1.16,1.41,1.67l-1.53,1.03-.13.13ZM27.68,10l1.66-.9c.38.64.64,1.29.9,2.06l-1.79.64c0-.26-.64-1.54-.77-1.8ZM29.08,15.52c0-.64,0-1.29-.13-1.93l1.79-.26c0,.77.26,1.41.26,2.19,0,0-1.92,0-1.92,0ZM28.95,17.58l1.79.26c0,.77-.26,1.41-.38,2.19l-1.79-.51c0-.26.26-1.67.38-1.93ZM27.04,22.85c.38-.51.64-1.16.9-1.67l1.66.77c-.26.64-.64,1.29-1.02,1.93,0,0-1.53-1.03-1.53-1.03ZM25.25,25.16c.26-.26.38-.51.64-.64l1.41,1.16c-.26.26-.51.51-.77.77l-1.28-1.29ZM15.92,2.8c-2.17,0-4.1.51-6.02,1.54-1.92,1.03-3.45,2.44-4.73,4.24-1.15,1.8-1.92,3.86-2.17,6.04-.26,2.19,0,4.24.9,6.3.77,1.93,2.17,3.73,3.71,5.14,1.66,1.41,3.58,2.31,5.75,2.7s4.22.26,6.27-.26c2.05-.64,3.96-1.8,5.37-3.21l1.28,1.29c-1.79,1.8-3.84,2.96-6.14,3.73s-4.86.9-7.16.39c-2.43-.51-4.6-1.54-6.52-3.08-1.92-1.54-3.32-3.6-4.35-5.78-.9-2.31-1.28-4.76-1.02-7.2s1.02-4.76,2.43-6.81c1.41-2.06,3.2-3.73,5.37-4.88s4.6-1.8,7.03-1.8v1.67ZM15.14,6.53c.78,0,.9.44.9.7v9.97l6.01,3.47c.26,0,.38.39.38.51v.64c0,.26-.26.39-.51.39h-.64l-6.52-3.73c-.13,0-.26-.26-.38-.39V7.3c0-.26,0-.77.77-.77Z"/>
</svg>