<svg xmlns="http://www.w3.org/2000/svg" viewBox="0 0 32 32">
  <path d="M28.19,6.62c.52,0,.94.42.94.94v16.88c0,.52-.42.94-.94.94H3.81c-.52,0-.94-.42-.94-.94V7.56c0-.52.42-.94.94-.94h24.38ZM3.81,4.75c-1.55,0-2.81,1.26-2.81,2.81v16.88c0,1.55,1.26,2.81,2.81,2.81h24.38c1.55,0,2.81-1.26,2.81-2.81V7.56c0-1.55-1.26-2.81-2.81-2.81H3.81ZM14.12,11.31c0-.52.42-.94.94-.94h9.38c.52,0,.94.42.94.94s-.42.94-.94.94h-9.38c-.52,0-.94-.42-.94-.94M11.32,9.71c.37.37.37.96,0,1.33,0,0,0,0,0,0l-2.81,2.81c-.37.37-.96.37-1.33,0,0,0,0,0,0,0l-.94-.94c-.37-.37-.37-.96,0-1.33.37-.37.96-.37,1.33,0h0l.27.28,2.15-2.15c.37-.37.96-.37,1.33,0,0,0,0,0,0,0M14.12,18.81c0-.52.42-.94.94-.94h9.38c.52,0,.94.42.94.94s-.42.94-.94.94h-9.38c-.52,0-.94-.42-.94-.94M11.32,17.21c.37.37.37.96,0,1.33,0,0,0,0,0,0l-2.81,2.81c-.37.37-.96.37-1.33,0,0,0,0,0,0,0l-.94-.94c-.37-.37-.37-.96,0-1.33.37-.37.96-.37,1.33,0l.27.28,2.15-2.15c.37-.37.96-.37,1.33,0,0,0,0,0,0,0"/>
</svg>