<svg xmlns="http://www.w3.org/2000/svg" viewBox="0 0 32 32">
  <path d="M9.33,1C4.74,1,1,4.74,1,9.33v13.33c0,4.59,3.74,8.33,8.33,8.33h13.33c4.59,0,8.33-3.74,8.33-8.33v-13.33c0-4.59-3.74-8.33-8.33-8.33h-13.33ZM9.33,4.33h13.33c2.76,0,5,2.24,5,5v13.33c0,2.76-2.24,5-5,5h-13.33c-2.76,0-5-2.24-5-5v-13.33c0-2.76,2.24-5,5-5ZM24.33,6c-.92,0-1.67.75-1.67,1.67s.75,1.67,1.67,1.67,1.67-.75,1.67-1.67-.75-1.67-1.67-1.67ZM16,7.67c-4.59,0-8.33,3.74-8.33,8.33s3.74,8.33,8.33,8.33,8.33-3.74,8.33-8.33-3.74-8.33-8.33-8.33ZM16,11c2.76,0,5,2.24,5,5s-2.24,5-5,5-5-2.24-5-5,2.24-5,5-5Z"/>
</svg>