<svg xmlns="http://www.w3.org/2000/svg" viewBox="0 0 32 32">
  <path d="M23.5,31c4.14,0,7.5-3.36,7.5-7.5s-3.36-7.5-7.5-7.5-7.5,3.36-7.5,7.5,3.36,7.5,7.5,7.5M27.1,21.37l-2.86,4.77c-.46.76-1.44,1.01-2.2.55-.11-.07-.22-.15-.31-.24l-1.66-1.66c-.42-.42-.42-1.1,0-1.52s1.1-.42,1.52,0l1.17,1.17,2.51-4.18c.3-.51.96-.67,1.47-.37s.67.96.37,1.47h0M20.29,7.43c0,3.55-2.88,6.43-6.43,6.43s-6.43-2.88-6.43-6.43S10.31,1,13.86,1s6.43,2.88,6.43,6.43M13.86,11.71c2.37,0,4.29-1.92,4.29-4.29s-1.92-4.29-4.29-4.29-4.29,1.92-4.29,4.29,1.92,4.29,4.29,4.29M14.41,26.71c-.25-.7-.41-1.42-.49-2.15H3.14c0-.53.33-2.11,1.78-3.57,1.4-1.4,4.03-2.85,8.93-2.85.56,0,1.09.02,1.59.05.48-.73,1.06-1.39,1.72-1.97-1-.15-2.1-.23-3.31-.23-10.71,0-12.86,6.43-12.86,8.57s2.14,2.14,2.14,2.14h11.26Z"/>
</svg>