<svg xmlns="http://www.w3.org/2000/svg" viewBox="0 0 32 32">
  <path d="M16,1.37C7.72,1.37,1,8.09,1,16.37c0,6.63,4.3,12.25,10.26,14.23.75.14.99-.33.99-.72v-2.79c-4.17.91-5.04-1.77-5.04-1.77-.68-1.73-1.67-2.2-1.67-2.2-1.36-.93.1-.91.1-.91,1.51.1,2.3,1.55,2.3,1.55,1.34,2.29,3.51,1.63,4.37,1.25.13-.97.52-1.63.95-2-3.33-.38-6.83-1.67-6.83-7.41,0-1.64.59-2.98,1.54-4.03-.16-.38-.67-1.91.15-3.97,0,0,1.26-.4,4.13,1.54,1.2-.33,2.48-.5,3.75-.5,1.27,0,2.56.17,3.76.5,2.86-1.94,4.12-1.54,4.12-1.54.82,2.07.3,3.59.15,3.97.96,1.05,1.54,2.39,1.54,4.03,0,5.76-3.51,7.03-6.85,7.4.54.46,1.03,1.38,1.03,2.78v4.12c0,.4.24.87,1,.72,5.96-1.99,10.25-7.61,10.25-14.23,0-8.28-6.72-15-15-15Z"/>
</svg>