<svg xmlns="http://www.w3.org/2000/svg" viewBox="0 0 32 32">
  <path d="M23.44,31c-.99,0-1.98-.13-2.95-.38C13.36,28.82,3.18,18.64,1.38,11.5c-.74-2.82-.39-5.8.99-8.38,1-1.92,3.39-2.67,5.32-1.67.36.19.68.42.97.71l2.92,2.92c1.14,1.13,1.48,2.89.83,4.36-.3.71-.74,1.37-1.28,1.93-.37.37-.44.96-.23,1.77.79,2.94,5.03,7.18,7.97,7.97.81.22,1.4.14,1.76-.21.58-.56,1.23-1,1.96-1.31,1.47-.65,3.23-.31,4.36.84l2.91,2.92c1.54,1.54,1.53,4.05-.01,5.58-.29.29-.61.52-.97.71-1.69.9-3.55,1.36-5.43,1.36ZM5.87,2.99c-.2,0-.4.03-.59.09-.5.16-.9.5-1.14.96-1.15,2.15-1.44,4.61-.82,6.95,1.63,6.48,11.21,16.06,17.68,17.68,2.35.62,4.82.33,6.95-.81.19-.1.35-.21.49-.36.37-.37.57-.86.57-1.38s-.2-1.01-.57-1.38l-2.92-2.92c-.56-.57-1.43-.73-2.15-.41-.51.22-.96.52-1.35.9-.61.61-1.74,1.24-3.67.72-3.66-.98-8.4-5.71-9.38-9.38-.52-1.93.11-3.07.73-3.68.36-.38.66-.83.88-1.33.32-.74.16-1.6-.41-2.16l-2.92-2.92c-.14-.14-.3-.26-.48-.35-.28-.15-.59-.22-.9-.22Z"/>
</svg>