<svg xmlns="http://www.w3.org/2000/svg" viewBox="0 0 32 32">
  <path d="M21.46,14.43s.13.25.25.25,0,.25,0,.38v.38c0,.13,0,.25-.25.25l-5.65,5.65s-.25.13-.25.25h-.75c-.13,0-.25,0-.25-.25l-2.76-2.76s-.13-.25-.25-.25v-.75s0-.25.25-.25c.13-.13.38-.25.63-.25h.38s.25,0,.25.25l2.13,2.13,5.02-5.02s.25-.13.25-.25.25,0,.38,0h.38c.13,0,.25,0,.25.25ZM7.65,1c.25,0,.5,0,.63.25.13.13.25.38.25.63v.88h15.06v-.88c0-.25,0-.5.25-.63.13-.13.38-.25.63-.25s.5,0,.63.25c.13.13.25.38.25.63v.88h1.88c1,0,2.01.38,2.64,1.13.75.75,1.13,1.63,1.13,2.64v20.71c0,1-.38,2.01-1.13,2.64-.75.75-1.63,1.13-2.64,1.13H4.77c-1,0-2.01-.38-2.64-1.13-.75-.75-1.13-1.63-1.13-2.64V6.65c0-1,.38-2.01,1.13-2.64.75-.75,1.63-1.13,2.64-1.13h1.88v-.88c0-.25,0-.5.25-.63.13-.13.38-.25.63-.25l.13-.13ZM3.01,8.53v18.83c0,.5.25,1,.5,1.38.38.38.88.5,1.38.5h22.47c.5,0,1-.25,1.38-.5.38-.38.5-.88.5-1.38V8.53H3.01Z"/>
</svg>