<svg xmlns="http://www.w3.org/2000/svg" viewBox="0 0 32 32">
  <path d="M7.42,21.62h4.69c.27,0,.54,0,.67.27s.27.4.27.67,0,.54-.27.67-.4.27-.67.27h-4.16l-4.16,5.63h24.26l-4.16-5.63h-4.16c-.27,0-.54,0-.67-.27s-.27-.4-.27-.67,0-.54.27-.67.4-.27.67-.27h5.09s.27.13.27.27l5.63,7.51c0,.13.13.27.13.54v.54c0,.13-.13.27-.4.4-.13,0-.27.13-.54.13H2.06c-.13,0-.4,0-.54-.13-.13,0-.27-.27-.4-.4v-.54c0-.13,0-.4.13-.54l5.63-7.51s.4-.27.54-.27ZM15.87,2.98c-.67,0-1.47.13-2.14.4-.67.27-1.34.67-1.88,1.21s-.94,1.07-1.21,1.88c-.27.67-.4,1.34-.4,2.14s.13,1.47.4,2.14c.27.67.67,1.34,1.21,1.88s1.07.94,1.88,1.21c.67.27,1.34.4,2.14.4,1.47,0,2.95-.54,3.89-1.61,1.07-1.07,1.61-2.41,1.61-3.89s-.53-3.26-1.6-4.19c-1.5-1.73-3.9-1.57-3.9-1.57ZM8.36,8.48c0-1.47.4-2.82,1.21-4.02.8-1.21,1.88-2.14,3.22-2.82,1.34-.54,2.82-.8,4.16-.54,1.47.27,2.68.8,3.75,1.74,1.07.94,1.88,2.14,2.28,3.62.4,1.34.4,2.82,0,4.16s-1.21,2.55-2.28,3.49c-1.07.94-2.41,1.47-3.89,1.74v10.32c0,.27,0,.54-.27.67s-.4.27-.67.27-.54,0-.67-.27-.27-.4-.27-.67v-10.32c-1.74-.27-3.49-1.07-4.69-2.41s-1.88-3.08-1.88-4.96Z"/>
</svg>