<svg xmlns="http://www.w3.org/2000/svg" viewBox="0 0 32 32">
  <path d="M11.38,18.75c.13,1.75,1.5,3.12,4.13,3.38v1.38h1.12v-1.38c2.63-.13,4.12-1.62,4.12-3.62s-1.12-2.75-3.25-3.25l-.88-.25v-3.63c1.12.13,1.88.75,2,1.63h2c-.13-1.75-1.62-3.12-4-3.25v-1.38h-1.12v1.38c-2.25.25-3.75,1.63-3.75,3.5s1.12,2.75,3,3.25h.75v4c-1.12-.13-1.88-.75-2.12-1.75,0,0-2,0-2,0ZM15.38,14.75c-1.12-.25-1.75-.75-1.75-1.63s.62-1.5,1.75-1.75v3.25h0v.12ZM16.75,17c1.38.25,2,.88,2,1.75s-.75,1.75-2.13,1.88v-3.62h.13ZM16,29.12c-3.5,0-6.88-1.38-9.25-3.88-2.5-2.5-3.87-5.75-3.87-9.25s1.37-6.88,3.87-9.25c2.5-2.5,5.75-3.87,9.25-3.87s6.87,1.37,9.25,3.87c2.5,2.5,3.88,5.75,3.88,9.25s-1.38,6.88-3.88,9.25-5.75,3.88-9.25,3.88ZM16,31c4,0,7.75-1.62,10.62-4.38,2.87-2.87,4.38-6.62,4.38-10.62s-1.62-7.75-4.38-10.62c-2.87-2.88-6.62-4.38-10.62-4.38s-7.75,1.63-10.62,4.38c-2.88,2.88-4.38,6.63-4.38,10.62s1.63,7.75,4.38,10.62c2.88,2.87,6.63,4.38,10.62,4.38ZM16,26.25c-2.75,0-5.38-1.12-7.25-3s-3-4.5-3-7.25,1.12-5.38,3-7.25,4.5-3,7.25-3,5.37,1.12,7.25,3,3,4.5,3,7.25-1.12,5.37-3,7.25-4.5,3-7.25,3ZM16,27.25c1.5,0,3-.25,4.25-.88,1.38-.62,2.63-1.38,3.62-2.5s1.88-2.25,2.5-3.62.88-2.87.88-4.25-.25-3-.88-4.25c-.62-1.38-1.38-2.63-2.5-3.62s-2.25-1.88-3.62-2.5-2.87-.87-4.25-.87c-3,0-5.87,1.12-8,3.25s-3.25,5-3.25,8,1.13,5.88,3.25,8c2.12,2.13,5,3.25,8,3.25Z"/>
</svg>