<svg xmlns="http://www.w3.org/2000/svg" viewBox="0 0 32 32">
  <path d="M30.84,6.87c-.21-.56-.6-1.01-1.11-1.31-.37-.21-.79-.35-1.25-.35H3.53c-.46,0-.88.13-1.25.35-.51.29-.9.75-1.11,1.31-.1.27-.17.57-.17.87v16.51c0,.35.07.68.2.99.23.54.65.98,1.17,1.25.35.18.74.29,1.16.29h24.95c.42,0,.81-.11,1.16-.29.52-.27.94-.71,1.17-1.25.13-.3.2-.64.2-.99V7.75c0-.31-.06-.6-.16-.87ZM28.36,6.93l-7.94,7.94-1.21,1.21-2.72,2.72c-.27.27-.73.26-1,0l-2.72-2.72-1.21-1.21L3.64,6.93h24.72ZM2.71,8.42l7.66,7.66-7.66,7.66v-15.32ZM3.79,25.07l7.79-7.79,2.72,2.72c.47.47,1.09.71,1.71.71s1.24-.24,1.71-.71l2.72-2.72,7.79,7.79H3.79ZM29.29,23.73l-7.66-7.66,7.66-7.66v15.32Z"/>
</svg>